<svg xmlns="http://www.w3.org/2000/svg" viewBox="0 0 100 100" width="100" height="100" fill="#7F00FF">
  <path d="M69,23.5c-7.088,0-13.529,2.803-18.29,7.351c-0.241,0.23-0.478,0.464-0.71,0.703c-1.345,1.385-2.53,2.921-3.549,4.571  
           c0,0-0.009-0.003-0.009-0.003s-1.721,2.616-2.477,5.209l0,0.016C43.022,44.061,42.5,46.969,42.5,50c0,3.823,0.82,7.457,2.284,10.744  
           c1.312-1.68,2.314-3.606,2.95-5.691c0.595-1.467,1.174-3.165,1.616-5.053c0.458-1.958,1.551-5.481,3.002-8.272  
           c0.727-1.542,1.395-2.35,2.383-3.495c0.216-0.283,0.476-0.529,0.718-0.79C58.834,33.798,63.647,31.5,69,31.5  
           c10.201,0,18.5,8.299,18.5,18.5S79.201,68.5,69,68.5c-5.353,0-10.166-2.298-13.547-5.943c-1.253,2.43-2.854,4.649-4.743,6.593  
           C55.471,73.697,61.912,76.5,69,76.5c14.612,0,26.5-11.888,26.5-26.5S83.612,23.5,69,23.5z"/>
  <path d="M50.126,68.307c1.291-1.35,2.437-2.835,3.423-4.431l0.007,0.003c0,0,1.722-2.617,2.478-5.209v-0.012  
           C56.977,55.942,57.5,53.032,57.5,50c0-3.796-0.81-7.403-2.254-10.67l-0.003-0.074c0,0-0.012,0.017-0.018,0.025  
           c-0.003-0.008-0.006-0.017-0.01-0.024c-0.333,0.527-0.653,1.015-0.96,1.477c-0.691,1.144-1.275,2.343-1.73,3.597  
           c-0.688,1.601-1.373,3.514-1.877,5.67c-0.441,1.884-1.489,5.21-2.845,7.944c-0.794,1.729-1.552,2.625-2.501,3.776  
           c-0.205,0.249-0.526,0.591-0.757,0.837C41.165,66.202,36.352,68.5,31,68.5c-10.201,0-18.5-8.299-18.5-18.5S20.799,31.5,31,31.5  
           c5.352,0,10.166,2.298,13.547,5.943c1.253-2.43,2.855-4.649,4.743-6.592C44.53,26.303,38.088,23.5,31,23.5  
           C16.388,23.5,4.5,35.388,4.5,50S16.388,76.5,31,76.5c7.048,0,13.456-2.773,18.208-7.277c0,0.001,0.001,0.002,0.001,0.002  
           c0.014-0.013,0.033-0.032,0.048-0.046c0.011-0.011,0.022-0.021,0.033-0.03c0,0,0-0.001-0.001-0.001  
           c0.207-0.199,0.492-0.483,0.709-0.703C49.999,68.445,50,68.445,50,68.446c0.014-0.015,0.026-0.03,0.04-0.045  
           c0.03-0.03,0.065-0.065,0.09-0.091C50.128,68.31,50.127,68.308,50.126,68.307z"/>
</svg>
